<?xml version="1.0" encoding="utf-8"?>
<!-- Generator: Adobe Illustrator 22.1.0, SVG Export Plug-In . SVG Version: 6.00 Build 0)  -->
<svg version="1.1" id="Ebene_1" xmlns="http://www.w3.org/2000/svg" xmlns:xlink="http://www.w3.org/1999/xlink" x="0px" y="0px"
	 viewBox="0 0 149.3 34.1" style="enable-background:new 0 0 149.3 34.1;" xml:space="preserve">
<style type="text/css">
	.st0{clip-path:url(#SVGID_2_);fill:#E87652;}
	.st1{fill:#3C3C3B;}
	.st2{clip-path:url(#SVGID_4_);fill:#3C3C3B;}
</style>
<g>
	<defs>
		<rect id="SVGID_1_" x="3.9" y="4.2" width="26.1" height="26.1"/>
	</defs>
	<clipPath id="SVGID_2_">
		<use xlink:href="#SVGID_1_"  style="overflow:visible;"/>
	</clipPath>
	<path class="st0" d="M17.3,17c-1.8,0-3.4-0.3-4.4-0.9c0,0.1-0.1,0.1-0.1,0.2c0,0.1,0.1,0.3,0.3,0.4l0.1,0.1
		c0.1,0.1,0.3,0.2,0.5,0.3c0,0,0,0,0.1,0c0,0,0.1,0,0.1,0c0.1,0,0.1,0,0.2,0.1l0,0c0,0,0,0,0,0c0,0,0.1,0,0.1,0c0,0,0,0,0.1,0
		c0.1,0,0.1,0,0.2,0.1c0.1,0,0.1,0,0.2,0l0.1,0c0.8,0.2,1.7,0.3,2.7,0.3c1,0,1.9-0.1,2.7-0.3l0.1,0c0.1,0,0.1,0,0.2,0
		c0.1,0,0.1,0,0.2-0.1c0,0,0.1,0,0.1,0c0,0,0.1,0,0.1,0c0,0,0,0,0,0l0,0c0.1,0,0.1,0,0.2-0.1c0,0,0.1,0,0.1,0c0,0,0,0,0.1,0
		c0.2-0.1,0.3-0.2,0.5-0.3l0.1-0.1c0.2-0.2,0.3-0.3,0.3-0.4c0-0.1,0-0.1-0.1-0.2C20.7,16.6,19.1,17,17.3,17 M17.3,22.7
		c-1.8,0-3.4-0.3-4.4-0.9c0,0.1-0.1,0.1-0.1,0.2c0,0.6,1.8,1.5,4.5,1.5s4.5-0.9,4.5-1.5c0-0.1,0-0.1-0.1-0.2
		C20.7,22.3,19.1,22.7,17.3,22.7 M17.3,20.8c-1.8,0-3.4-0.3-4.4-0.9c0,0.1-0.1,0.1-0.1,0.2c0,0.1,0.1,0.3,0.3,0.4l0.1,0.1
		c0.1,0.1,0.3,0.2,0.5,0.3c0,0,0,0,0.1,0c0,0,0.1,0,0.1,0c0.1,0,0.1,0,0.2,0.1l0.1,0c0,0,0.1,0,0.1,0c0,0,0,0,0.1,0
		c0.1,0,0.1,0,0.2,0.1c0.1,0,0.1,0,0.2,0l0.1,0c0.8,0.2,1.7,0.3,2.7,0.3c1,0,1.9-0.1,2.7-0.3c0,0,0,0,0.1,0c0.1,0,0.1,0,0.2,0
		c0.1,0,0.1,0,0.2-0.1l0,0c0,0,0,0,0.1,0c0,0,0.1,0,0.1,0l0.1,0c0.1,0,0.1,0,0.2-0.1c0,0,0.1,0,0.1,0c0,0,0,0,0.1,0
		c0.2-0.1,0.3-0.2,0.5-0.3l0.1-0.1c0.2-0.2,0.3-0.3,0.3-0.4c0-0.1,0-0.1-0.1-0.2C20.7,20.4,19.1,20.8,17.3,20.8 M17.3,18.9
		c-1.8,0-3.4-0.3-4.4-0.9c0,0.1-0.1,0.1-0.1,0.2c0,0.1,0.1,0.3,0.3,0.4l0.1,0.1c0.1,0.1,0.3,0.2,0.5,0.3c0,0,0,0,0.1,0
		c0,0,0.1,0,0.1,0c0.1,0,0.1,0,0.2,0.1l0,0c0,0,0,0,0,0c0,0,0.1,0,0.1,0c0,0,0,0,0.1,0c0.1,0,0.1,0,0.2,0.1c0.1,0,0.1,0,0.2,0l0.1,0
		c0.8,0.2,1.7,0.3,2.7,0.3c1,0,1.9-0.1,2.7-0.3l0.1,0c0.1,0,0.1,0,0.2,0c0.1,0,0.1,0,0.2-0.1l0,0c0,0,0,0,0.1,0c0,0,0.1,0,0.1,0
		l0.1,0c0.1,0,0.1,0,0.2-0.1c0,0,0.1,0,0.1,0c0,0,0,0,0.1,0c0.2-0.1,0.3-0.2,0.5-0.3l0.1-0.1c0.2-0.2,0.3-0.3,0.3-0.4
		c0-0.1,0-0.1-0.1-0.2C20.7,18.5,19.1,18.9,17.3,18.9 M17,4.2c-7.2,0-13,5.8-13,13s5.8,13,13,13h0h13v-13c0,0,0,0,0,0
		C30,10,24.2,4.2,17,4.2 M22.9,14.4c0,0.3-0.1,0.6-0.3,0.9c0.3,0.4,0.3,0.7,0.3,0.9c0,0.3-0.1,0.6-0.3,0.9c0.3,0.4,0.3,0.7,0.3,0.9
		c0,0.3-0.1,0.6-0.3,0.9c0.3,0.4,0.3,0.7,0.3,0.9c0,0.3-0.1,0.6-0.3,0.9c0.3,0.4,0.3,0.7,0.3,0.9c0,1.5-2.4,2.6-5.6,2.6
		s-5.6-1.1-5.6-2.6c0-0.2,0.1-0.6,0.3-0.9c-0.2-0.3-0.3-0.6-0.3-0.9c0-0.2,0.1-0.6,0.3-0.9c-0.2-0.3-0.3-0.6-0.3-0.9
		c0-0.2,0.1-0.6,0.3-0.9c-0.2-0.3-0.3-0.6-0.3-0.9c0-0.2,0.1-0.6,0.3-0.9c-0.2-0.3-0.3-0.6-0.3-0.9c0-0.2,0.1-0.6,0.3-0.9
		c-0.2-0.3-0.3-0.6-0.3-0.9c0-1.5,2.4-2.6,5.6-2.6s5.6,1.1,5.6,2.6c0,0.3-0.1,0.6-0.3,0.9C22.9,13.8,22.9,14.1,22.9,14.4 M17.3,11
		c-2.7,0-4.5,0.9-4.5,1.5c0,0.1,0.1,0.3,0.3,0.4l0.1,0.1c0.1,0.1,0.2,0.1,0.3,0.2l0,0c0,0,0.1,0.1,0.1,0.1c0,0,0.1,0,0.1,0l0,0
		c0.2,0.1,0.5,0.2,0.7,0.3l0,0c0,0,0.1,0,0.1,0c0,0,0.1,0,0.1,0l0.1,0c0.7,0.2,1.6,0.3,2.4,0.3c0.9,0,1.7-0.1,2.4-0.3l0.1,0
		c0,0,0.1,0,0.1,0c0,0,0.1,0,0.1,0l0,0c0.3-0.1,0.5-0.2,0.7-0.3l0,0c0,0,0.1,0,0.1,0c0,0,0.1-0.1,0.1-0.1l0,0
		c0.1-0.1,0.2-0.1,0.3-0.2l0.1-0.1c0.2-0.2,0.3-0.3,0.3-0.4C21.8,11.9,20,11,17.3,11 M17.3,15.1c-1.8,0-3.4-0.3-4.4-0.9
		c0,0.1-0.1,0.1-0.1,0.2c0,0.1,0.1,0.3,0.3,0.4l0.1,0.1c0.1,0.1,0.2,0.1,0.3,0.2l0,0c0.1,0,0.1,0.1,0.1,0.1c0,0,0.1,0,0.1,0.1l0,0
		c0.3,0.1,0.6,0.2,0.9,0.3c0,0,0.1,0,0.1,0l0,0c0,0,0.1,0,0.1,0c0.1,0,0.2,0,0.2,0.1l0,0c0.7,0.1,1.4,0.2,2.2,0.2
		c0.7,0,1.5-0.1,2.2-0.2l0,0c0.1,0,0.2,0,0.2-0.1c0,0,0.1,0,0.1,0l0,0c0,0,0.1,0,0.1,0c0.3-0.1,0.6-0.2,0.9-0.3l0,0
		c0,0,0.1,0,0.1-0.1c0,0,0.1,0,0.1-0.1l0,0c0.1-0.1,0.2-0.1,0.3-0.2l0.1-0.1c0.2-0.2,0.3-0.3,0.3-0.4c0-0.1,0-0.1-0.1-0.2
		C20.7,14.8,19.1,15.1,17.3,15.1"/>
</g>
<polygon class="st1" points="50.9,14.6 50.9,30.2 49.7,30.2 49.7,22.7 39.9,22.7 39.9,30.2 38.8,30.2 38.8,14.6 39.9,14.6 
	39.9,21.7 49.7,21.7 49.7,14.6 "/>
<rect x="55" y="14.6" class="st1" width="1.1" height="15.6"/>
<polygon class="st1" points="59.7,14.6 65.6,28.8 71.6,14.6 72.8,14.6 66.1,30.2 65.1,30.2 58.5,14.6 "/>
<polygon class="st1" points="85.6,29.2 85.6,30.2 75.2,30.2 75.2,14.6 85.4,14.6 85.4,15.6 76.3,15.6 76.3,21.8 84.2,21.8 
	84.2,22.7 76.3,22.7 76.3,29.2 "/>
<polygon class="st1" points="102.8,30.2 102.8,16.7 96.7,27.2 96,27.2 89.8,16.7 89.8,30.2 88.7,30.2 88.7,14.6 89.8,14.6 
	96.3,25.8 102.8,14.6 104,14.6 104,30.2 "/>
<rect x="108.1" y="14.6" class="st1" width="1.1" height="15.6"/>
<polygon class="st1" points="114.5,16.7 114.5,30.2 113.4,30.2 113.4,14.6 114.2,14.6 125.2,28.3 125.2,14.6 126.3,14.6 126.3,30.2 
	125.3,30.2 "/>
<g>
	<defs>
		<rect id="SVGID_3_" y="0" width="149.3" height="34.1"/>
	</defs>
	<clipPath id="SVGID_4_">
		<use xlink:href="#SVGID_3_"  style="overflow:visible;"/>
	</clipPath>
	<path class="st2" d="M130.4,30.2V14.6h5.2c1.2,0,2.3,0.2,3.2,0.6c0.9,0.4,1.7,1,2.3,1.7c0.6,0.7,1.1,1.5,1.4,2.5
		c0.3,0.9,0.5,2,0.5,3c0,1.2-0.2,2.3-0.5,3.2c-0.3,1-0.8,1.8-1.5,2.5c-0.6,0.7-1.4,1.2-2.3,1.6c-0.9,0.4-1.9,0.6-3.1,0.6H130.4z
		 M141.9,22.4c0-1-0.1-1.9-0.4-2.7s-0.7-1.5-1.2-2.1c-0.5-0.6-1.2-1.1-2-1.4c-0.8-0.3-1.7-0.5-2.7-0.5h-4.1v13.6h4.1
		c1,0,1.9-0.2,2.7-0.5c0.8-0.3,1.4-0.8,2-1.4c0.5-0.6,0.9-1.3,1.2-2.2C141.8,24.3,141.9,23.4,141.9,22.4"/>
</g>
</svg>
