<?xml version="1.0" encoding="UTF-8" standalone="no"?>
<svg width="1059px" height="292px" viewBox="0 0 1059 292" version="1.1" xmlns="http://www.w3.org/2000/svg" xmlns:xlink="http://www.w3.org/1999/xlink" xmlns:sketch="http://www.bohemiancoding.com/sketch/ns">
    <!-- Generator: Sketch Beta 3.1 (8657) - http://www.bohemiancoding.com/sketch -->
    <title>permutive-icon 3</title>
    <desc>Created with Sketch Beta.</desc>
    <defs></defs>
    <g id="Page-1" stroke="none" stroke-width="1" fill="none" fill-rule="evenodd" sketch:type="MSPage">
        <g id="permutive-icon-2" sketch:type="MSLayerGroup" transform="translate(12.000000, 17.000000)" stroke="#61686A" stroke-width="12.5">
            <g id="g3063" transform="translate(139.500000, 132.250000) scale(1, -1) translate(-139.500000, -132.250000) translate(0.000000, -0.250000)" sketch:type="MSShapeGroup">
                <g id="g3067" transform="translate(0.000000, 0.250000)">
                    <g id="g3069" transform="translate(139.250000, 106.250000) scale(-1, 1) translate(-139.250000, -106.250000) translate(84.750000, 53.750000)">
                        <path d="M25.078525,53.75 C15.854275,36.3617375 0,2.5 0,2.5 C0,2.5 36.4201375,-0.48763875 54.375,-0.48763875 C72.6701375,-0.48763875 108.75,2.5 108.75,2.5 C108.75,2.5 92.8741375,36.8392625 83.9032,53.75 C74.7491375,71.005925 54.375,105 54.375,105 C54.375,105 33.9792625,70.5284125 25.078525,53.75 L25.078525,53.75 Z" id="path3071"></path>
                    </g>
                    <g id="g3073" transform="translate(139.250000, 132.500000) scale(-1, 1) translate(-139.250000, -132.500000) translate(-0.250000, 0.000000)">
                        <path d="M67.4054875,136.72975 C43.8370625,92.3408375 0,2.5 0,2.5 C0,2.5 92.4547875,0.162533875 137.221,0.162533875 C185.3715,0.162533875 278.75,2.5 278.75,2.5 C278.75,2.5 235.548,91.51355 211.54025,136.72975 C189.089625,179.0135 139.375,265 139.375,265 C139.375,265 90.2953875,179.840875 67.4054875,136.72975 L67.4054875,136.72975 Z" id="path3075"></path>
                    </g>
                    <g id="g3077" transform="translate(50.000000, 32.250000) scale(1, -1) translate(-50.000000, -32.250000) translate(9.000000, 5.750000)">
                        <path d="M0.375,51.875 L81,0" id="path3079"></path>
                    </g>
                    <g id="g3081" transform="translate(231.250000, 33.250000) scale(1, -1) translate(-231.250000, -33.250000) translate(190.250000, 7.750000)">
                        <path d="M81,51.875 L0.375,0.0152439" id="path3083"></path>
                    </g>
                    <g id="g3085" transform="translate(140.250000, 204.250000) scale(1, -1) translate(-140.250000, -204.250000) translate(139.750000, 156.250000)">
                        <path d="M-0.375,96.271975 L-0.37500375,0.0219726625" id="path3087"></path>
                    </g>
                </g>
            </g>
        </g>
        <path d="M407.25,182 L407.25,81.171875 L442.6875,81.171875 C447.984401,81.171875 452.730448,82.0859284 456.925781,83.9140625 C461.121115,85.7421966 464.730454,88.2382654 467.753906,91.4023438 C470.777359,94.5664221 473.109367,98.2226355 474.75,102.371094 C476.390633,106.519552 477.210938,110.890602 477.210938,115.484375 C477.210938,120.078148 476.390633,124.460917 474.75,128.632812 C473.109367,132.804708 470.777359,136.47264 467.753906,139.636719 C464.730454,142.800797 461.109396,145.296866 456.890625,147.125 C452.671854,148.953134 447.937526,149.867188 442.6875,149.867188 L420.328125,149.867188 L420.328125,182 L407.25,182 Z M420.328125,137.914062 L442.6875,137.914062 C445.968766,137.914062 448.921862,137.316412 451.546875,136.121094 C454.171888,134.925775 456.421866,133.320323 458.296875,131.304688 C460.171884,129.289052 461.613276,126.91017 462.621094,124.167969 C463.628911,121.425768 464.132812,118.531265 464.132812,115.484375 C464.132812,112.531235 463.628911,109.683607 462.621094,106.941406 C461.613276,104.199205 460.171884,101.796885 458.296875,99.734375 C456.421866,97.6718647 454.160169,96.0312561 451.511719,94.8125 C448.863268,93.5937439 445.921891,92.984375 442.6875,92.984375 L420.328125,92.984375 L420.328125,137.914062 Z M490.96875,149.023438 C490.96875,144.148413 491.718743,139.636739 493.21875,135.488281 C494.718757,131.339823 496.828111,127.730484 499.546875,124.660156 C502.265639,121.589828 505.570293,119.199227 509.460938,117.488281 C513.351582,115.777335 517.710913,114.921875 522.539062,114.921875 C527.039085,114.921875 531.187481,115.660149 534.984375,117.136719 C538.781269,118.613289 542.039049,120.699205 544.757812,123.394531 C547.476576,126.089857 549.609367,129.230451 551.15625,132.816406 C552.703133,136.402362 553.476562,140.257792 553.476562,144.382812 C553.476562,145.320317 553.453125,146.468743 553.40625,147.828125 C553.359375,149.187507 553.195314,150.781241 552.914062,152.609375 L503.765625,152.609375 C503.765625,155.375014 504.15234,157.988269 504.925781,160.449219 C505.699223,162.910169 506.882805,165.078116 508.476562,166.953125 C510.07032,168.828134 512.109363,170.316401 514.59375,171.417969 C517.078137,172.519537 520.05467,173.070312 523.523438,173.070312 C528.492212,173.070312 532.253893,172.039073 534.808594,169.976562 C537.363294,167.914052 539.156245,165.500014 540.1875,162.734375 L552.914062,162.734375 C552.35156,165.500014 551.273445,168.124988 549.679688,170.609375 C548.08593,173.093762 546.058606,175.296865 543.597656,177.21875 C541.136706,179.140635 538.207048,180.687494 534.808594,181.859375 C531.410139,183.031256 527.648458,183.617188 523.523438,183.617188 C518.039035,183.617188 513.257833,182.65626 509.179688,180.734375 C505.101542,178.81249 501.714857,176.257828 499.019531,173.070312 C496.324205,169.882797 494.3086,166.203146 492.972656,162.03125 C491.636712,157.859354 490.96875,153.52346 490.96875,149.023438 L490.96875,149.023438 Z M503.90625,143.117188 L541.382812,143.117188 C541.382812,137.726536 539.660173,133.449235 536.214844,130.285156 C532.769514,127.121078 528.304715,125.539062 522.820312,125.539062 C517.617161,125.539062 513.210956,127.027329 509.601562,130.003906 C505.992169,132.980484 504.093751,137.351534 503.90625,143.117188 L503.90625,143.117188 Z M574.617188,182 L574.617188,116.609375 L587.132812,116.609375 L587.132812,129.40625 C588.867196,125.281229 591.74998,121.953138 595.78125,119.421875 C599.81252,116.890612 604.218726,115.625 609,115.625 C611.390637,115.625 613.406242,115.953122 615.046875,116.609375 L615.046875,128.140625 C613.687493,127.859374 612.609379,127.671875 611.8125,127.578125 C611.015621,127.484375 610.171879,127.4375 609.28125,127.4375 C601.687462,127.4375 596.097674,129.792945 592.511719,134.503906 C588.925763,139.214867 587.132812,145.484336 587.132812,153.3125 L587.132812,182 L574.617188,182 Z M630.140625,182 L630.140625,116.609375 L642.65625,116.609375 L642.65625,128.28125 C644.015632,124.531231 646.324202,121.3672 649.582031,118.789062 C652.83986,116.210925 657.21091,114.921875 662.695312,114.921875 C667.992214,114.921875 672.410139,116.16405 675.949219,118.648438 C679.488299,121.132825 681.820307,124.531228 682.945312,128.84375 C684.398445,125.093731 686.929669,121.835951 690.539062,119.070312 C694.148456,116.304674 698.976532,114.921875 705.023438,114.921875 C708.960957,114.921875 712.347642,115.589837 715.183594,116.925781 C718.019545,118.261725 720.316397,120.078114 722.074219,122.375 C723.83204,124.671886 725.144527,127.402328 726.011719,130.566406 C726.878911,133.730485 727.3125,137.093732 727.3125,140.65625 L727.3125,182 L714.796875,182 L714.796875,144.382812 C714.796875,138.335907 713.625012,133.753922 711.28125,130.636719 C708.937488,127.519516 705.49221,125.960938 700.945312,125.960938 C696.070288,125.960938 692.191421,127.835919 689.308594,131.585938 C686.425767,135.335956 684.984375,141.054649 684.984375,148.742188 L684.984375,182 L672.46875,182 L672.46875,145.15625 C672.46875,138.546842 671.296887,133.695328 668.953125,130.601562 C666.609363,127.507797 663.257834,125.960938 658.898438,125.960938 C654.023413,125.960938 650.097671,127.812481 647.121094,131.515625 C644.144516,135.218769 642.65625,140.960899 642.65625,148.742188 L642.65625,182 L630.140625,182 Z M750.421875,155.210938 L750.421875,116.609375 L762.9375,116.609375 L762.9375,151.203125 C762.9375,154.29689 763.230466,157.1328 763.816406,159.710938 C764.402347,162.289075 765.339837,164.515616 766.628906,166.390625 C767.917975,168.265634 769.59374,169.753901 771.65625,170.855469 C773.71876,171.957037 776.249985,172.507812 779.25,172.507812 C782.437516,172.507812 785.226551,171.910162 787.617188,170.714844 C790.007824,169.519525 791.964836,167.890635 793.488281,165.828125 C795.011726,163.765615 796.160152,161.386732 796.933594,158.691406 C797.707035,155.99608 798.09375,153.148452 798.09375,150.148438 L798.09375,116.609375 L810.609375,116.609375 L810.609375,182 L798.09375,182 L798.09375,170.328125 C796.171865,174.359395 793.242207,177.582019 789.304688,179.996094 C785.367168,182.410168 780.515654,183.617188 774.75,183.617188 C770.624979,183.617188 766.910173,182.91407 763.605469,181.507812 C760.300765,180.101555 757.546886,177.968764 755.34375,175.109375 C753.515616,172.624988 752.238285,169.835953 751.511719,166.742188 C750.785153,163.648422 750.421875,159.80471 750.421875,155.210938 L750.421875,155.210938 Z M827.742188,127.15625 L827.742188,116.609375 L839.835938,116.609375 L839.835938,94.6015625 L852.351562,94.6015625 L852.351562,116.609375 L869.367188,116.609375 L869.367188,127.15625 L852.351562,127.15625 L852.351562,157.25 C852.351562,160.437516 852.621091,162.957022 853.160156,164.808594 C853.699221,166.660166 854.449214,168.089839 855.410156,169.097656 C856.371099,170.105474 857.496087,170.749999 858.785156,171.03125 C860.074225,171.312501 861.539054,171.453125 863.179688,171.453125 C864.539069,171.453125 866.050773,171.40625 867.714844,171.3125 C869.378915,171.21875 870.70312,171.078126 871.6875,170.890625 L871.6875,182 C870.421869,182.187501 868.757823,182.374999 866.695312,182.5625 C864.632802,182.750001 862.500011,182.84375 860.296875,182.84375 C858.28124,182.84375 856.089856,182.656252 853.722656,182.28125 C851.355457,181.906248 849.140635,180.968757 847.078125,179.46875 C845.015615,177.968742 843.292976,175.683609 841.910156,172.613281 C840.527337,169.542953 839.835938,165.335964 839.835938,159.992188 L839.835938,127.15625 L827.742188,127.15625 Z M886.570312,91.859375 C886.570312,89.0937362 887.554678,86.7031351 889.523438,84.6875 C891.492197,82.6718649 893.882798,81.6640625 896.695312,81.6640625 C899.460951,81.6640625 901.828115,82.6718649 903.796875,84.6875 C905.765635,86.7031351 906.75,89.0937362 906.75,91.859375 C906.75,94.6250138 905.765635,96.9687404 903.796875,98.890625 C901.828115,100.81251 899.460951,101.773438 896.695312,101.773438 C893.929674,101.773438 891.550791,100.81251 889.558594,98.890625 C887.566396,96.9687404 886.570312,94.6250138 886.570312,91.859375 L886.570312,91.859375 Z M890.507812,182 L890.507812,116.609375 L902.882812,116.609375 L902.882812,182 L890.507812,182 Z M920.085938,116.609375 L933.65625,116.609375 L954.117188,164.140625 L974.789062,116.609375 L988.359375,116.609375 L958.40625,182 L949.757812,182 L920.085938,116.609375 Z M994.523438,149.023438 C994.523438,144.148413 995.27343,139.636739 996.773438,135.488281 C998.273445,131.339823 1000.3828,127.730484 1003.10156,124.660156 C1005.82033,121.589828 1009.12498,119.199227 1013.01562,117.488281 C1016.90627,115.777335 1021.2656,114.921875 1026.09375,114.921875 C1030.59377,114.921875 1034.74217,115.660149 1038.53906,117.136719 C1042.33596,118.613289 1045.59374,120.699205 1048.3125,123.394531 C1051.03126,126.089857 1053.16405,129.230451 1054.71094,132.816406 C1056.25782,136.402362 1057.03125,140.257792 1057.03125,144.382812 C1057.03125,145.320317 1057.00781,146.468743 1056.96094,147.828125 C1056.91406,149.187507 1056.75,150.781241 1056.46875,152.609375 L1007.32031,152.609375 C1007.32031,155.375014 1007.70703,157.988269 1008.48047,160.449219 C1009.25391,162.910169 1010.43749,165.078116 1012.03125,166.953125 C1013.62501,168.828134 1015.66405,170.316401 1018.14844,171.417969 C1020.63282,172.519537 1023.60936,173.070312 1027.07812,173.070312 C1032.0469,173.070312 1035.80858,172.039073 1038.36328,169.976562 C1040.91798,167.914052 1042.71093,165.500014 1043.74219,162.734375 L1056.46875,162.734375 C1055.90625,165.500014 1054.82813,168.124988 1053.23438,170.609375 C1051.64062,173.093762 1049.61329,175.296865 1047.15234,177.21875 C1044.69139,179.140635 1041.76174,180.687494 1038.36328,181.859375 C1034.96483,183.031256 1031.20315,183.617188 1027.07812,183.617188 C1021.59372,183.617188 1016.81252,182.65626 1012.73438,180.734375 C1008.65623,178.81249 1005.26954,176.257828 1002.57422,173.070312 C999.878893,169.882797 997.863288,166.203146 996.527344,162.03125 C995.1914,157.859354 994.523438,153.52346 994.523438,149.023438 L994.523438,149.023438 Z M1007.46094,143.117188 L1044.9375,143.117188 C1044.9375,137.726536 1043.21486,133.449235 1039.76953,130.285156 C1036.3242,127.121078 1031.8594,125.539062 1026.375,125.539062 C1021.17185,125.539062 1016.76564,127.027329 1013.15625,130.003906 C1009.54686,132.980484 1007.64844,137.351534 1007.46094,143.117188 L1007.46094,143.117188 Z" id="Permutive-8" fill="#61686A" sketch:type="MSShapeGroup"></path>
    </g>
</svg>