<?xml version="1.0" encoding="UTF-8" standalone="no"?>
<svg
   xmlns:dc="http://purl.org/dc/elements/1.1/"
   xmlns:cc="http://creativecommons.org/ns#"
   xmlns:rdf="http://www.w3.org/1999/02/22-rdf-syntax-ns#"
   xmlns:svg="http://www.w3.org/2000/svg"
   xmlns="http://www.w3.org/2000/svg"
   viewBox="0 0 400.62399 400.62399"
   height="400.62399"
   width="400.62399"
   xml:space="preserve"
   id="svg3810"
   version="1.1"><metadata
     id="metadata3816"><rdf:RDF><cc:Work
         rdf:about=""><dc:format>image/svg+xml</dc:format><dc:type
           rdf:resource="http://purl.org/dc/dcmitype/StillImage" /><dc:title></dc:title></cc:Work></rdf:RDF></metadata><defs
     id="defs3814"><clipPath
       id="clipPath3826"
       clipPathUnits="userSpaceOnUse"><path
         id="path3824"
         d="M 0,300.468 H 300.468 V 0 H 0 Z" /></clipPath></defs><g
     transform="matrix(1.3333333,0,0,-1.3333333,0,400.624)"
     id="g3818"><g
       id="g3820"><g
         clip-path="url(#clipPath3826)"
         id="g3822"><g
           transform="translate(104.8281,40.0693)"
           id="g3828"><path
             id="path3830"
             style="fill:#fbd200;fill-opacity:1;fill-rule:nonzero;stroke:none"
             d="M 0,0 C -1.853,0 -3.623,0.709 -4.923,1.992 -6.72,3.767 -6.75,5.484 -6.75,9.879 c 0,4.394 0.03,6.111 1.827,7.884 1.3,1.283 3.07,1.992 4.923,1.992 3.513,0 6.058,-2.153 6.693,-5.676 H 5.171 C 4.59,16.752 2.656,18.444 0,18.444 c -1.411,0 -2.738,-0.514 -3.734,-1.5 -1.411,-1.39 -1.522,-2.888 -1.522,-7.065 0,-4.177 0.111,-5.679 1.522,-7.069 C -2.738,1.827 -1.411,1.312 0,1.312 c 2.656,0 4.647,1.687 5.228,4.365 H 6.693 C 6.058,2.155 3.458,0 0,0" /></g><g
           transform="translate(166.1387,57.0156)"
           id="g3832"><path
             id="path3834"
             style="fill:#fbd200;fill-opacity:1;fill-rule:nonzero;stroke:none"
             d="m 0,0 c -0.994,0.978 -2.322,1.5 -3.732,1.5 -1.407,0 -2.739,-0.522 -3.733,-1.5 -1.408,-1.396 -1.523,-2.895 -1.523,-7.07 0,-4.174 0.115,-5.676 1.523,-7.067 0.994,-0.98 2.326,-1.498 3.733,-1.498 1.41,0 2.738,0.518 3.732,1.498 1.412,1.391 1.523,2.893 1.523,7.067 C 1.523,-2.895 1.412,-1.396 0,0 m 1.191,-14.954 c -1.302,-1.283 -3.072,-1.995 -4.923,-1.995 -1.85,0 -3.622,0.712 -4.922,1.995 -1.799,1.774 -1.828,3.492 -1.828,7.884 0,4.397 0.029,6.113 1.828,7.888 1.3,1.282 3.072,1.991 4.922,1.991 1.851,0 3.621,-0.709 4.923,-1.991 1.797,-1.775 1.827,-3.491 1.827,-7.888 0,-4.392 -0.03,-6.11 -1.827,-7.884" /></g><g
           transform="translate(198.8809,57.0156)"
           id="g3836"><path
             id="path3838"
             style="fill:#fbd200;fill-opacity:1;fill-rule:nonzero;stroke:none"
             d="m 0,0 c -0.996,0.978 -2.322,1.5 -3.732,1.5 -1.411,0 -2.741,-0.522 -3.737,-1.5 -1.406,-1.396 -1.517,-2.895 -1.517,-7.07 0,-4.174 0.111,-5.676 1.517,-7.067 0.996,-0.98 2.326,-1.498 3.737,-1.498 1.41,0 2.736,0.518 3.732,1.498 1.412,1.391 1.523,2.893 1.523,7.067 C 1.523,-2.895 1.412,-1.396 0,0 m 1.191,-14.954 c -1.302,-1.283 -3.07,-1.995 -4.923,-1.995 -1.856,0 -3.622,0.712 -4.922,1.995 -1.803,1.774 -1.826,3.492 -1.826,7.884 0,4.397 0.023,6.113 1.826,7.888 1.3,1.282 3.066,1.991 4.922,1.991 1.853,0 3.621,-0.709 4.923,-1.991 1.797,-1.775 1.829,-3.491 1.829,-7.888 0,-4.392 -0.032,-6.11 -1.829,-7.884" /></g><g
           transform="translate(218.3516,42.3066)"
           id="g3840"><path
             id="path3842"
             style="fill:#fbd200;fill-opacity:1;fill-rule:nonzero;stroke:none"
             d="m 0,0 c -1.301,-1.417 -3.182,-2.237 -5.172,-2.237 -1.855,0 -3.621,0.712 -4.924,1.992 -1.795,1.77 -1.828,3.494 -1.828,7.884 0,4.394 0.033,6.114 1.828,7.888 1.303,1.285 3.069,1.993 4.924,1.993 3.455,0 6.113,-2.241 6.719,-5.676 H 0.059 c -0.582,2.674 -2.577,4.369 -5.231,4.369 -1.408,0 -2.738,-0.524 -3.732,-1.506 -1.409,-1.391 -1.522,-2.893 -1.522,-7.068 0,-4.174 0.113,-5.676 1.522,-7.067 0.994,-0.984 2.324,-1.498 3.732,-1.498 1.551,0 3.068,0.655 4.096,1.878 0.855,1.04 1.187,2.185 1.187,3.851 v 1.746 h -5.283 v 1.31 H 1.602 V 4.693 C 1.602,2.674 1.16,1.23 0,0" /></g><g
           transform="translate(216.0039,176.7051)"
           id="g3844"><path
             id="path3846"
             style="fill:#ffec8d;fill-opacity:1;fill-rule:nonzero;stroke:none"
             d="M 0,0 H -47.838 L -23.92,40.876 Z" /></g><g
           transform="translate(167.0352,177.3496)"
           id="g3848"><path
             id="path3850"
             style="fill:#ffec8d;fill-opacity:1;fill-rule:nonzero;stroke:none"
             d="m 0,0 -23.92,40.876 47.834,0.003 z" /></g><g
           transform="translate(216.0039,175.4131)"
           id="g3852"><path
             id="path3854"
             style="fill:#fbd200;fill-opacity:1;fill-rule:nonzero;stroke:none"
             d="M 0,0 -23.92,-40.878 -47.838,0 Z" /></g><g
           transform="translate(190.9492,133.8906)"
           id="g3856"><path
             id="path3858"
             style="fill:#fbd200;fill-opacity:1;fill-rule:nonzero;stroke:none"
             d="m 0,0 h -47.835 l 23.921,40.875 z" /></g><g
           transform="translate(84.4707,217.5845)"
           id="g3860"><path
             id="path3862"
             style="fill:#fbd200;fill-opacity:1;fill-rule:nonzero;stroke:none"
             d="M 0,0 H 47.839 L 23.918,-40.877 Z" /></g><g
           transform="translate(133.4434,216.937)"
           id="g3864"><path
             id="path3866"
             style="fill:#fbd200;fill-opacity:1;fill-rule:nonzero;stroke:none"
             d="M 0,0 23.916,-40.875 H -23.921 Z" /></g><g
           transform="translate(84.4707,218.8765)"
           id="g3868"><path
             id="path3870"
             style="fill:#ffec8d;fill-opacity:1;fill-rule:nonzero;stroke:none"
             d="M 0,0 H 47.839 L 23.918,40.879 Z" /></g><g
           transform="translate(109.5225,260.397)"
           id="g3872"><path
             id="path3874"
             style="fill:#ffec8d;fill-opacity:1;fill-rule:nonzero;stroke:none"
             d="M 0,0 23.921,-40.875 47.845,0 Z" /></g><g
           transform="translate(65.1973,59.6621)"
           id="g3876"><path
             id="path3878"
             style="fill:#fbd200;fill-opacity:1;fill-rule:nonzero;stroke:none"
             d="M 0,0 V -1.312 H 5.863 V -19.43 h 1.492 v 18.118 h 5.891 V 0 Z" /></g><g
           transform="translate(82.3174,59.6621)"
           id="g3880"><path
             id="path3882"
             style="fill:#fbd200;fill-opacity:1;fill-rule:nonzero;stroke:none"
             d="m 0,0 v -19.43 h 11.946 v 1.308 H 1.493 v 7.833 h 8.903 v 1.31 H 1.493 v 7.667 H 11.946 V 0 Z" /></g><g
           transform="translate(128.4189,59.6621)"
           id="g3884"><path
             id="path3886"
             style="fill:#fbd200;fill-opacity:1;fill-rule:nonzero;stroke:none"
             d="M 0,0 V -8.979 H -10.259 V 0 h -1.496 v -19.43 h 1.496 v 9.141 H 0 V -19.43 H 1.492 V 0 Z" /></g><g
           transform="translate(148.8564,59.6621)"
           id="g3888"><path
             id="path3890"
             style="fill:#fbd200;fill-opacity:1;fill-rule:nonzero;stroke:none"
             d="M 0,0 V -16.837 L -11.367,0 h -1.494 v -19.43 h 1.494 V -2.539 L 0,-19.43 H 1.491 V 0 Z" /></g><g
           transform="translate(174.4648,59.6621)"
           id="g3892"><path
             id="path3894"
             style="fill:#fbd200;fill-opacity:1;fill-rule:nonzero;stroke:none"
             d="m 0,0 v -19.43 h 11.943 v 1.308 H 1.49 L 1.49,0 Z" /></g><g
           transform="translate(233.6719,59.6621)"
           id="g3896"><path
             id="path3898"
             style="fill:#fbd200;fill-opacity:1;fill-rule:nonzero;stroke:none"
             d="M 0,0 -4.896,-9.824 -9.904,0 H -11.5 l 5.803,-11.379 v -8.051 h 1.494 v 8.051 L 1.604,0 Z" /></g><g
           transform="translate(89.2847,86.4941)"
           id="g3900"><path
             id="path3902"
             style="fill:#6d6e71;fill-opacity:1;fill-rule:nonzero;stroke:none"
             d="M 0,0 C 0,2.858 -0.783,5.215 -2.529,6.847 -3.908,8.12 -5.792,8.936 -8.78,9.343 l -3.862,0.544 c -1.333,0.182 -2.391,0.68 -3.032,1.269 -0.69,0.638 -0.965,1.5 -0.965,2.315 0,2.22 1.652,4.083 5.056,4.083 2.161,0 4.643,-0.275 6.709,-2.224 l 4.047,3.947 c -2.806,2.674 -6.068,3.764 -10.573,3.764 -7.081,0 -11.401,-4.039 -11.401,-9.796 0,-2.723 0.783,-4.81 2.346,-6.349 1.471,-1.41 3.538,-2.27 6.343,-2.677 l 3.952,-0.546 c 1.517,-0.228 2.254,-0.544 2.897,-1.136 0.69,-0.633 1.013,-1.583 1.013,-2.719 0,-2.584 -2.025,-3.991 -5.793,-3.991 -3.034,0 -5.84,0.679 -7.907,2.722 l -4.137,-4.082 c 3.217,-3.222 6.987,-4.264 11.95,-4.264 C -5.285,-9.797 0,-6.259 0,0 M 12.412,22.767 H 6.022 V -9.527 h 6.39 z M 43.348,3.721 V 8.435 H 30.981 v -5.26 h 6.022 V 1.95 c 0,-1.676 -0.414,-3.128 -1.472,-4.309 -1.057,-1.135 -2.619,-1.814 -4.55,-1.814 -1.748,0 -3.172,0.636 -4.09,1.677 -1.242,1.361 -1.562,2.906 -1.562,9.117 0,6.214 0.32,7.71 1.562,9.07 0.918,1.045 2.342,1.725 4.09,1.725 3.264,0 5.15,-1.676 5.884,-4.717 h 6.436 c -0.874,5.444 -4.735,10.342 -12.32,10.342 -3.679,0 -6.528,-1.269 -8.824,-3.538 -3.313,-3.265 -3.22,-7.299 -3.22,-12.882 0,-5.579 -0.093,-9.615 3.22,-12.88 2.296,-2.268 5.239,-3.538 8.824,-3.538 3.493,0 6.62,1 9.241,3.674 2.296,2.36 3.126,5.173 3.126,9.844 M 74.881,-9.523 v 32.29 H 68.493 V 2.993 L 55.527,22.767 h -5.699 v -32.29 h 6.389 v 19.82 l 12.961,-19.82 z m 14.02,32.29 H 82.51 V -9.527 h 6.391 z m 29.187,-5.623 v 5.623 H 96.53 v -32.29 h 6.387 V 3.585 h 12.921 v 5.622 h -12.921 v 7.937 z m 27.901,5.623 h -6.942 L 133.03,9.753 126.913,22.767 h -6.94 L 129.809,3.721 V -9.523 h 6.344 V 3.721 Z" /></g></g></g></g></svg>