<svg xmlns="http://www.w3.org/2000/svg" xmlns:xlink="http://www.w3.org/1999/xlink" viewBox="0 0 610.9453 184.0516"><defs><style>.a{fill:url(#a);}.b{fill:url(#b);}.c{fill:url(#c);}.d{fill:url(#d);}.e{fill:url(#e);}.f{fill:url(#f);}.g{fill:url(#g);}.h{fill:url(#h);}.i{fill:url(#i);}.j{fill:url(#j);}.k{fill:url(#k);}.l{fill:url(#l);}.m{fill:url(#m);}.n{fill:url(#n);}.o{fill:url(#o);}.p{fill:url(#p);}.q{fill:url(#q);}.r{fill:url(#r);}.s{fill:none;}.t{clip-path:url(#s);}.u{mask:url(#t);}.v{fill:url(#u);}.w{mask:url(#v);}.x{fill:url(#w);}.y{mask:url(#x);}.z{fill:url(#y);}.aa{mask:url(#z);}.ab{fill:url(#aa);}.ac{mask:url(#ab);}.ad{fill:url(#ac);}.ae{mask:url(#ad);}.af{fill:url(#ae);}.ag{mask:url(#af);}.ah{fill:url(#ag);}.ai{mask:url(#ah);}.aj{fill:url(#ai);}.ak{mask:url(#aj);}.al{fill:url(#ak);}.am{mask:url(#al);}.an{fill:url(#am);}.ao{mask:url(#an);}.ap{fill:url(#ao);}.aq{mask:url(#ap);}.ar{fill:url(#aq);}.as{mask:url(#ar);}.at{fill:url(#as);}.au{mask:url(#at);}.av{fill:url(#au);}.aw{mask:url(#av);}.ax{fill:url(#aw);}.ay{mask:url(#ax);}.az{fill:url(#ay);}.ba{mask:url(#az);}.bb{fill:url(#ba);}.bc{fill:url(#bb);}.bd{fill:url(#bc);}.be{fill:url(#bd);}.bf{fill:url(#be);}.bg{mask:url(#bf);}.bh{fill:url(#bg);}.bi{fill:url(#bh);}</style><linearGradient id="a" x1="8576.1306" y1="9425.3928" x2="8771.9335" y2="9425.3928" gradientTransform="matrix(0.1667, -0.0963, 0.0655, 0.1134, -2042.3852, -98.3419)" gradientUnits="userSpaceOnUse"><stop offset="0.93" stop-color="#fff"/><stop offset="0.9561" stop-color="#fdfdfd"/><stop offset="0.9655" stop-color="#f6f6f6"/><stop offset="0.9722" stop-color="#ebebeb"/><stop offset="0.9776" stop-color="#dadada"/><stop offset="0.9822" stop-color="#c4c4c4"/><stop offset="0.9863" stop-color="#a8a8a8"/><stop offset="0.9901" stop-color="#888"/><stop offset="0.9935" stop-color="#626262"/><stop offset="0.9967" stop-color="#373737"/><stop offset="0.9995" stop-color="#090909"/><stop offset="1"/></linearGradient><linearGradient id="b" x1="5538.5575" y1="6165.2625" x2="5734.3604" y2="6165.2625" gradientTransform="matrix(0.1853, -0.1501, 0.1616, 0.1995, -2014.8524, -238.1514)" gradientUnits="userSpaceOnUse"><stop offset="0.9" stop-color="#fff"/><stop offset="0.9373" stop-color="#fdfdfd"/><stop offset="0.9507" stop-color="#f6f6f6"/><stop offset="0.9603" stop-color="#ebebeb"/><stop offset="0.968" stop-color="#dadada"/><stop offset="0.9746" stop-color="#c4c4c4"/><stop offset="0.9805" stop-color="#a8a8a8"/><stop offset="0.9858" stop-color="#888"/><stop offset="0.9907" stop-color="#626262"/><stop offset="0.9952" stop-color="#373737"/><stop offset="0.9993" stop-color="#090909"/><stop offset="1"/></linearGradient><linearGradient id="c" x1="1876.9202" y1="2875.2998" x2="2072.723" y2="2875.2998" gradientTransform="matrix(0.1957, -0.2693, 0.6031, 0.4382, -2082.3928, -567.7423)" gradientUnits="userSpaceOnUse"><stop offset="0.3166" stop-color="#fff"/><stop offset="0.5712" stop-color="#fdfdfd"/><stop offset="0.663" stop-color="#f6f6f6"/><stop offset="0.7284" stop-color="#ebebeb"/><stop offset="0.7813" stop-color="#dadada"/><stop offset="0.8266" stop-color="#c4c4c4"/><stop offset="0.8667" stop-color="#a8a8a8"/><stop offset="0.903" stop-color="#888"/><stop offset="0.9364" stop-color="#626262"/><stop offset="0.9674" stop-color="#373737"/><stop offset="0.995" stop-color="#090909"/><stop offset="1"/></linearGradient><linearGradient id="d" x1="1235.1581" y1="3065.7633" x2="1430.961" y2="3065.7633" gradientTransform="matrix(0.1665, -0.2883, 0.6456, 0.3727, -2158.2682, -599.1532)" xlink:href="#c"/><linearGradient id="e" x1="552.3312" y1="3225.2255" x2="748.1341" y2="3225.2255" gradientTransform="matrix(0.1354, -0.3041, 0.681, 0.3032, -2237.0112, -622.4609)" xlink:href="#c"/><linearGradient id="f" x1="-164.0793" y1="3351.9394" x2="31.7236" y2="3351.9394" gradientTransform="matrix(0.1029, -0.3166, 0.709, 0.2304, -2317.7591, -637.41)" xlink:href="#c"/><linearGradient id="g" x1="-906.2242" y1="3444.5168" x2="-710.4214" y2="3444.5168" gradientTransform="matrix(0.0692, -0.3256, 0.7292, 0.155, -2399.6273, -643.8368)" xlink:href="#c"/><linearGradient id="h" x1="-1665.9726" y1="3501.9432" x2="-1470.1697" y2="3501.9432" gradientTransform="matrix(0.0348, -0.3311, 0.7414, 0.0779, -2481.7188, -641.6708)" xlink:href="#c"/><linearGradient id="i" x1="-2457.478" y1="3523.5894" x2="-2239.1996" y2="3523.5894" gradientTransform="matrix(0, -0.3329, 0.7454, 0, -2563.1342, -630.9358)" xlink:href="#c"/><linearGradient id="j" x1="-78.3623" y1="740.6465" x2="117.4405" y2="740.6465" gradientTransform="matrix(0.9781, -0.2079, 0.1951, 0.9177, -114.1303, -470.485)" gradientUnits="userSpaceOnUse"><stop offset="0"/><stop offset="1" stop-color="#fff"/></linearGradient><linearGradient id="k" x1="837.6146" y1="2681.6088" x2="1033.4174" y2="2681.6088" gradientTransform="matrix(0.5875, -0.2994, 0.2006, 0.3938, -1018.2078, -632.3574)" gradientUnits="userSpaceOnUse"><stop offset="0" stop-color="#fff"/><stop offset="0.1557" stop-color="#c2c2c2"/><stop offset="0.3239" stop-color="#888"/><stop offset="0.4866" stop-color="#575757"/><stop offset="0.6395" stop-color="#313131"/><stop offset="0.7804" stop-color="#161616"/><stop offset="0.905" stop-color="#060606"/><stop offset="1"/></linearGradient><linearGradient id="l" x1="892.4672" y1="2501.3197" x2="1088.2701" y2="2501.3197" gradientTransform="matrix(0.5976, -0.2787, 0.1868, 0.4005, -992.1419, -583.5603)" gradientUnits="userSpaceOnUse"><stop offset="0" stop-color="#fff"/><stop offset="0.0629" stop-color="#dadada"/><stop offset="0.1601" stop-color="#a7a7a7"/><stop offset="0.2621" stop-color="#7b7b7b"/><stop offset="0.3668" stop-color="#555"/><stop offset="0.475" stop-color="#363636"/><stop offset="0.5878" stop-color="#1e1e1e"/><stop offset="0.7072" stop-color="#0d0d0d"/><stop offset="0.8376" stop-color="#030303"/><stop offset="1"/></linearGradient><linearGradient id="m" x1="-3096.8806" y1="3509.2184" x2="-2901.0777" y2="3509.2184" gradientTransform="matrix(-0.0412, -0.3924, 0.7414, -0.0779, -2657.9276, -753.9481)" xlink:href="#c"/><linearGradient id="n" x1="4243.5568" y1="1541.5138" x2="4439.3597" y2="1541.5138" gradientTransform="matrix(0.3041, -0.1354, 0.3032, 0.681, -1773.5307, -304.0552)" xlink:href="#c"/><linearGradient id="o" x1="3901.0201" y1="1849.7599" x2="4096.8229" y2="1849.7599" gradientTransform="matrix(0.2883, -0.1665, 0.3727, 0.6456, -1823.5352, -369.1955)" xlink:href="#c"/><linearGradient id="p" x1="3488.2108" y1="2140.3275" x2="3684.0136" y2="2140.3275" gradientTransform="matrix(0.2693, -0.1957, 0.4382, 0.6031, -1880.0748, -428.7521)" xlink:href="#c"/><linearGradient id="q" x1="3009.6517" y1="2410.0332" x2="3205.4546" y2="2410.0332" gradientTransform="matrix(0.2474, -0.2228, 0.4988, 0.554, -1942.53, -482.0724)" xlink:href="#c"/><linearGradient id="r" x1="2470.5862" y1="2655.9219" x2="2666.389" y2="2655.9219" gradientTransform="matrix(0.2228, -0.2474, 0.554, 0.4988, -2010.2165, -528.5723)" xlink:href="#c"/><clipPath id="s"><path class="s" d="M62.4875,184.07A61.5967,61.5967,0,0,1,2.281,135.4384L93.4024,69.235A61.5772,61.5772,0,0,1,62.4875,184.07Z"/></clipPath><mask id="t" x="-2.0565" y="114.5726" width="45.5636" height="41.2221" maskUnits="userSpaceOnUse"><polygon class="a" points="30.59 114.573 14.267 123.997 -2.056 133.421 10.861 155.795 43.507 136.946 30.59 114.573"/></mask><linearGradient id="u" x1="8674.0316" y1="9524.0753" x2="8674.0316" y2="9326.7111" gradientTransform="matrix(0.1667, -0.0963, 0.0655, 0.1134, -2042.3852, -98.3419)" gradientUnits="userSpaceOnUse"><stop offset="0.7" stop-opacity="0"/><stop offset="0.9996" stop-opacity="0.6"/></linearGradient><mask id="v" x="-8.1997" y="111.4882" width="68.177" height="68.7635" maskUnits="userSpaceOnUse"><polygon class="b" points="28.092 111.488 9.946 126.182 -8.2 140.876 23.686 180.252 59.977 150.863 28.092 111.488"/></mask><linearGradient id="w" x1="5636.4586" y1="6263.9449" x2="5636.4586" y2="6066.5807" gradientTransform="matrix(0.1853, -0.1501, 0.1616, 0.1995, -2014.8524, -238.1514)" gradientUnits="userSpaceOnUse"><stop offset="0.7" stop-opacity="0"/><stop offset="1" stop-opacity="0.7"/></linearGradient><mask id="x" x="-7.8592" y="75.3498" width="154.6381" height="136.3315" maskUnits="userSpaceOnUse"><polygon class="k" points="107.181 75.35 49.661 104.658 -7.859 133.966 31.739 211.681 146.779 153.066 107.181 75.35"/></mask><linearGradient id="y" x1="935.517" y1="2780.2901" x2="935.517" y2="2582.9259" gradientTransform="matrix(0.5875, -0.2994, 0.2006, 0.3938, -1018.2078, -632.3574)" gradientUnits="userSpaceOnUse"><stop offset="0.5" stop-opacity="0.4"/><stop offset="0.9293" stop-opacity="0.2126"/><stop offset="1" stop-opacity="0"/></linearGradient><mask id="z" x="-10.0446" y="75.494" width="153.8773" height="133.6156" maskUnits="userSpaceOnUse"><polygon class="l" points="106.971 75.494 48.463 102.777 -10.045 130.059 26.817 209.11 143.833 154.544 106.971 75.494"/></mask><linearGradient id="aa" x1="990.3696" y1="2600.001" x2="990.3696" y2="2402.6368" gradientTransform="matrix(0.5976, -0.2787, 0.1868, 0.4005, -992.1419, -583.5603)" gradientUnits="userSpaceOnUse"><stop offset="0.85" stop-opacity="0.2"/><stop offset="0.9788" stop-opacity="0.1063"/><stop offset="1" stop-opacity="0"/></linearGradient><mask id="ab" x="-9.8163" y="103.3696" width="154.395" height="92.216" maskUnits="userSpaceOnUse"><polygon class="m" points="-9.816 118.748 -5.778 157.167 -1.74 195.586 144.579 180.207 136.503 103.37 -9.816 118.748"/></mask><linearGradient id="ac" x1="-2998.9794" y1="3607.9007" x2="-2998.9794" y2="3410.5365" gradientTransform="matrix(-0.0412, -0.3924, 0.7414, -0.0779, -2657.9276, -753.9481)" gradientUnits="userSpaceOnUse"><stop offset="0" stop-opacity="0"/><stop offset="1" stop-opacity="0.2"/></linearGradient><mask id="ad" x="-45.496" y="77.4069" width="119.3894" height="160.918" maskUnits="userSpaceOnUse"><polygon class="n" points="14.052 77.407 -15.722 90.663 -45.496 103.919 14.345 238.325 73.893 211.812 14.052 77.407"/></mask><linearGradient id="ae" x1="4341.458" y1="1640.1962" x2="4341.458" y2="1442.832" gradientTransform="matrix(0.3041, -0.1354, 0.3032, 0.681, -1773.5307, -304.0552)" gradientUnits="userSpaceOnUse"><stop offset="0" stop-opacity="0"/><stop offset="1" stop-opacity="0.7"/></linearGradient><mask id="af" x="-46.1857" y="79.3365" width="130.0133" height="160.0059" maskUnits="userSpaceOnUse"><polygon class="o" points="10.265 79.337 -17.96 95.632 -46.186 111.928 27.377 239.342 83.828 206.751 10.265 79.337"/></mask><linearGradient id="ag" x1="3998.9213" y1="1948.4423" x2="3998.9213" y2="1751.0781" gradientTransform="matrix(0.2883, -0.1665, 0.3727, 0.6456, -1823.5352, -369.1955)" xlink:href="#ae"/><mask id="ah" x="-46.0344" y="81.6515" width="139.2126" height="157.3407" maskUnits="userSpaceOnUse"><polygon class="p" points="6.7 81.651 -19.667 100.809 -46.034 119.966 40.444 238.992 93.178 200.678 6.7 81.651"/></mask><linearGradient id="ai" x1="3586.1119" y1="2239.0099" x2="3586.1119" y2="2041.6457" gradientTransform="matrix(0.2693, -0.1957, 0.4382, 0.6031, -1880.0748, -428.7521)" xlink:href="#ae"/><mask id="aj" x="-45.0439" y="84.3264" width="146.8868" height="152.9516" maskUnits="userSpaceOnUse"><polygon class="q" points="3.397 84.326 -20.823 106.135 -45.044 127.943 53.402 237.278 101.843 193.662 3.397 84.326"/></mask><linearGradient id="ak" x1="3107.5529" y1="2508.7155" x2="3107.5529" y2="2311.3513" gradientTransform="matrix(0.2474, -0.2228, 0.4988, 0.554, -1942.53, -482.0724)" xlink:href="#ae"/><mask id="al" x="-43.2249" y="87.3319" width="152.9516" height="146.8868" maskUnits="userSpaceOnUse"><polygon class="r" points="0.392 87.332 -21.417 111.552 -43.225 135.773 66.11 234.219 109.727 185.778 0.392 87.332"/></mask><linearGradient id="am" x1="2568.4873" y1="2754.6043" x2="2568.4873" y2="2557.2401" gradientTransform="matrix(0.2228, -0.2474, 0.554, 0.4988, -2010.2165, -528.5723)" xlink:href="#ae"/><mask id="an" x="-40.5974" y="90.6352" width="157.3407" height="139.2126" maskUnits="userSpaceOnUse"><polygon class="c" points="-2.283 90.635 -21.44 117.003 -40.597 143.37 78.429 229.848 116.743 177.113 -2.283 90.635"/></mask><linearGradient id="ao" x1="1974.8213" y1="2973.9822" x2="1974.8213" y2="2776.618" gradientTransform="matrix(0.1957, -0.2693, 0.6031, 0.4382, -2082.3928, -567.7423)" xlink:href="#ae"/><mask id="ap" x="-37.1902" y="94.1999" width="160.0059" height="130.0132" maskUnits="userSpaceOnUse"><polygon class="d" points="-4.598 94.2 -20.894 122.425 -37.19 150.651 90.224 224.213 122.816 167.762 -4.598 94.2"/></mask><linearGradient id="aq" x1="1333.0593" y1="3164.4456" x2="1333.0593" y2="2967.0814" gradientTransform="matrix(0.1665, -0.2883, 0.6456, 0.3727, -2158.2682, -599.1532)" xlink:href="#ae"/><mask id="ar" x="-33.0406" y="97.9871" width="160.918" height="119.3894" maskUnits="userSpaceOnUse"><polygon class="e" points="-6.528 97.987 -19.784 127.761 -33.041 157.535 101.365 217.377 127.877 157.828 -6.528 97.987"/></mask><linearGradient id="as" x1="650.2324" y1="3323.9078" x2="650.2324" y2="3126.5436" gradientTransform="matrix(0.1354, -0.3041, 0.681, 0.3032, -2237.0112, -622.4609)" xlink:href="#ae"/><mask id="at" x="-28.1941" y="101.9552" width="160.0671" height="107.4575" maskUnits="userSpaceOnUse"><polygon class="f" points="-8.051 101.955 -18.123 132.952 -28.194 163.949 111.73 209.413 131.873 147.419 -8.051 101.955"/></mask><linearGradient id="au" x1="-66.1781" y1="3450.6217" x2="-66.1781" y2="3253.2575" gradientTransform="matrix(0.1029, -0.3166, 0.709, 0.2304, -2317.7591, -637.41)" gradientUnits="userSpaceOnUse"><stop offset="0" stop-opacity="0"/><stop offset="1" stop-opacity="0.3"/></linearGradient><mask id="av" x="-22.7038" y="106.0609" width="157.4625" height="94.3483" maskUnits="userSpaceOnUse"><polygon class="g" points="-9.151 106.061 -15.928 137.941 -22.704 169.82 121.206 200.409 134.759 136.65 -9.151 106.061"/></mask><linearGradient id="aw" x1="-808.3231" y1="3543.199" x2="-808.3231" y2="3345.8348" gradientTransform="matrix(0.0692, -0.3256, 0.7292, 0.155, -2399.6273, -643.8368)" xlink:href="#au"/><mask id="ax" x="-16.6298" y="110.259" width="153.1326" height="80.2054" maskUnits="userSpaceOnUse"><polygon class="h" points="-9.816 110.259 -13.223 142.672 -16.63 175.086 129.689 190.464 136.503 125.638 -9.816 110.259"/></mask><linearGradient id="ay" x1="-1568.0714" y1="3600.6254" x2="-1568.0714" y2="3403.2612" gradientTransform="matrix(0.0348, -0.3311, 0.7414, 0.0779, -2481.7188, -641.6708)" xlink:href="#au"/><mask id="az" x="-10.0388" y="114.5044" width="147.125" height="72.6659" maskUnits="userSpaceOnUse"><polygon class="i" points="-10.039 114.504 -10.039 150.837 -10.039 187.17 137.086 187.17 137.086 114.504 -10.039 114.504"/></mask><linearGradient id="ba" x1="-2348.3391" y1="3622.2717" x2="-2348.3391" y2="3424.9075" gradientTransform="matrix(0, -0.3329, 0.7454, 0, -2563.1342, -630.9358)" xlink:href="#ac"/><linearGradient id="bb" x1="-45.955" y1="1658.6882" x2="-45.955" y2="1461.324" gradientTransform="matrix(0.9511, -0.309, 0.1691, 0.5204, -184.0654, -682.7241)" gradientUnits="userSpaceOnUse"><stop offset="0" stop-opacity="0.6"/><stop offset="1" stop-opacity="0"/></linearGradient><linearGradient id="bc" x1="-389.5792" y1="1833.5907" x2="-389.5792" y2="1636.2265" gradientTransform="matrix(0.809, -0.5878, 0.5515, 0.7591, -556.9678, -1356.3648)" gradientUnits="userSpaceOnUse"><stop offset="0" stop-opacity="0.5"/><stop offset="1" stop-opacity="0"/></linearGradient><linearGradient id="bd" x1="-250.74" y1="1603.7486" x2="-250.74" y2="1406.3844" gradientTransform="matrix(0.866, -0.5, 0.4691, 0.8125, -412.4069, -1153.5076)" xlink:href="#bc"/><linearGradient id="be" x1="-135.2028" y1="1359.6977" x2="-135.2028" y2="1162.3335" gradientTransform="translate(-289.8423 -936.6509) rotate(-24) scale(1 0.9382)" xlink:href="#bb"/><mask id="bf" x="-65.5512" y="94.2541" width="230.0242" height="221.8387" maskUnits="userSpaceOnUse"><polygon class="j" points="125.973 94.254 30.211 114.609 -65.551 134.964 -27.051 316.093 164.473 275.383 125.973 94.254"/></mask><linearGradient id="bg" x1="19.5391" y1="839.3286" x2="19.5391" y2="641.9644" gradientTransform="matrix(0.9781, -0.2079, 0.1951, 0.9177, -114.1303, -470.485)" xlink:href="#bb"/><linearGradient id="bh" x1="-42.6006" y1="1104.5747" x2="-42.6006" y2="907.2105" gradientTransform="matrix(0.9511, -0.309, 0.2899, 0.8923, -192.3038, -708.0791)" xlink:href="#bb"/></defs><title>wort-bild-marke_schwarz</title><path d="M179.9,114.4312h16.22q1.0128,10.0121,11.9756,10.0112a16.8977,16.8977,0,0,0,7.9831-1.7406,5.8331,5.8331,0,0,0,3.295-5.5391,5.6062,5.6062,0,0,0-2.7254-5.2223,24.0527,24.0527,0,0,0-7.1627-2.564l-11.3982-2.4818q-16.6039-3.6119-16.6036-18.9479a18.2044,18.2044,0,0,1,6.78-14.3829,24.361,24.361,0,0,1,8.0468-4.277,34.8727,34.8727,0,0,1,10.8346-1.5521q11.2778,0,18.5014,5.4491t7.73,16.4734h-16.22q-.2538-4.6878-2.9781-7.0012a10.4953,10.4953,0,0,0-7.033-2.3125,11.3739,11.3739,0,0,0-6.811,1.896,6.9949,6.9949,0,0,0-.6854,10.3088,12.0226,12.0226,0,0,0,5.0926,2.3612l13.1267,2.8125a34.1749,34.1749,0,0,1,6.943,2.1744,19.2525,19.2525,0,0,1,5.664,3.7032,16.6791,16.6791,0,0,1,3.7428,5.3879,18.2747,18.2747,0,0,1,1.3762,7.4081,18,18,0,0,1-1.8372,8.0468,19.1189,19.1189,0,0,1-5.3224,6.5264,26.7119,26.7119,0,0,1-8.617,4.4348,38.3218,38.3218,0,0,1-11.7216,1.6475q-13.2432,0-20.4659-5.8608T179.9,114.4312Z"/><path d="M248.5415,63.1085V48.662h16.7272V63.1085Zm.2539,72.3587V69.3186h16.22v66.1486Z"/><path d="M282.1581,157.517V69.3186h16.22v8.9338a22.8125,22.8125,0,0,1,7.8882-7.73,22.3308,22.3308,0,0,1,11.4372-2.7879,23.512,23.512,0,0,1,11.5309,2.7243,23.8149,23.8149,0,0,1,8.1733,7.3817,32.7574,32.7574,0,0,1,4.7847,11.0249,57.027,57.027,0,0,1,1.5521,13.5276,56.4,56.4,0,0,1-1.5521,13.5589,33.16,33.16,0,0,1-4.7847,10.9612,22.9133,22.9133,0,0,1-19.7042,10.1378,22.3761,22.3761,0,0,1-11.4053-2.7878,22.7106,22.7106,0,0,1-7.92-7.73V157.517Zm16.22-50.1818q0,7.7928,3.5483,12.45t11.3405,4.6569q6.3363,0,9.98-3.4529a12.1841,12.1841,0,0,0,3.6431-9.2825V93.0159a12.1388,12.1388,0,0,0-3.6107-9.2507q-3.612-3.4221-10.0124-3.4217-7.7919,0-11.3405,4.6569t-3.5483,12.45Z"/><path d="M355.075,102.3932a55.981,55.981,0,0,1,1.5809-13.5276,33.2688,33.2688,0,0,1,4.8075-11.0249,23.7991,23.7991,0,0,1,8.1614-7.3817,23.44,23.44,0,0,1,11.5128-2.7243,22.4609,22.4609,0,0,1,11.4288,2.7879,22.7578,22.7578,0,0,1,7.9381,7.73V69.3186h16.2207v65.1349a25.7536,25.7536,0,0,1-2.474,11.6581,23.5261,23.5261,0,0,1-6.6285,8.174,28.9046,28.9046,0,0,1-9.5454,4.8471,38.91,38.91,0,0,1-11.2259,1.6157,52.3157,52.3157,0,0,1-10.89-1.0774,27.0789,27.0789,0,0,1-8.9584-3.5483,19.82,19.82,0,0,1-6.332-6.431,25.0749,25.0749,0,0,1-3.26-9.6624H373.58a9.7079,9.7079,0,0,0,3.5243,6.0193q2.7621,2.1534,8.4783,2.154a25.9008,25.9008,0,0,0,5.5878-.602,11.7788,11.7788,0,0,0,4.7931-2.2176,11.1789,11.1789,0,0,0,3.3022-4.4667,18.407,18.407,0,0,0,1.2388-7.2862v-7.0967a23.2424,23.2424,0,0,1-7.78,7.73,21.727,21.727,0,0,1-11.3339,2.7878,23.4447,23.4447,0,0,1-11.5128-2.7242,24.23,24.23,0,0,1-8.2238-7.4136A33.8092,33.8092,0,0,1,356.72,115.92,53.4009,53.4009,0,0,1,355.075,102.3932ZM371.93,111.707a12.2113,12.2113,0,0,0,3.6828,9.1558q3.6821,3.5805,9.97,3.58,7.809,0,11.3664-4.6887,3.5542-4.6878,3.5555-12.4185V97.4507q0-7.793-3.5555-12.45-3.558-4.6572-11.3664-4.6569-6.3524,0-10.0028,3.5483a12.1653,12.1653,0,0,0-3.65,9.1241Z"/><path d="M430.1886,116.6489a19.3729,19.3729,0,0,1,5.5758-13.8716q5.5764-5.8275,16.0946-6.7779l18.3094-1.5263V90.1644q0-5.1946-2.7873-7.5084a11.5556,11.5556,0,0,0-7.6032-2.3125,12.8758,12.8758,0,0,0-8.0473,2.3761,8.2015,8.2015,0,0,0-3.1042,6.9376H432.4057a20.1255,20.1255,0,0,1,8.237-16.3467,26.6428,26.6428,0,0,1,8.7436-4.15,40.6146,40.6146,0,0,1,11.0254-1.4255q11.9108,0,18.8172,5.766t6.9069,16.917v32.4408h11.1515v12.6087H471.7529l-.1272-10.2644h-.57a23.2147,23.2147,0,0,1-7.5708,8.6487q-4.7211,3.1988-12.3879,3.2a22.08,22.08,0,0,1-8.3318-1.52,20.6974,20.6974,0,0,1-6.6213-4.2452,18.9536,18.9536,0,0,1-4.403-6.4A20.9541,20.9541,0,0,1,430.1886,116.6489Zm16.8533,1.85a4.7865,4.7865,0,0,0,2.7249,4.4576,14.6142,14.6142,0,0,0,7.033,1.4861,11.9519,11.9519,0,0,0,9.7891-4.39,16.31,16.31,0,0,0,3.5795-10.6468v-2.591L450.72,108.5085q-3.6138.38-3.678,4.2992Z"/><path d="M497.7255,81.8644V69.3186H510.842v-20.66h16.22v20.66h16.474V81.8644h-16.474v40.9941h16.474v12.6087H510.842V81.8644Z"/><path d="M551.5,102.266a44.0425,44.0425,0,0,1,2.1511-14.1609,32.4285,32.4285,0,0,1,6.0451-10.8982,26.5875,26.5875,0,0,1,9.3989-7.0012,29.4981,29.4981,0,0,1,12.2151-2.471,30.071,30.071,0,0,1,12.21,2.408,27.9154,27.9154,0,0,1,9.387,6.6207,28.6407,28.6407,0,0,1,5.9634,10.0429,37.5872,37.5872,0,0,1,2.0611,12.6088v8.1734H568.3533V111.96q0,5.9564,3.906,9.2189a13.9541,13.9541,0,0,0,9.2429,3.2633,13.1848,13.1848,0,0,0,8.7-2.7879,11.62,11.62,0,0,0,4.002-7.8565h16.2207q-1.5862,11.0249-9.2933,17.139-7.7082,6.1157-19.8218,6.1141a29.8757,29.8757,0,0,1-12.5644-2.5346,26.3867,26.3867,0,0,1-9.3665-7.096,31.698,31.698,0,0,1-5.8543-10.9612A46.8765,46.8765,0,0,1,551.5,102.266ZM568.3533,94.98h25.9774V92.6354a11.5552,11.5552,0,0,0-3.6828-8.87,14.3636,14.3636,0,0,0-18.6106,0,11.5519,11.5519,0,0,0-3.684,8.87Z"/><g class="t"><g class="u"><polygon class="v" points="30.59 114.573 14.267 123.997 -2.056 133.421 10.861 155.795 43.507 136.946 30.59 114.573"/></g><g class="w"><polygon class="x" points="28.092 111.488 9.946 126.182 -8.2 140.876 23.686 180.252 59.977 150.863 28.092 111.488"/></g><g class="y"><polygon class="z" points="107.181 75.35 49.661 104.658 -7.859 133.966 31.739 211.681 146.779 153.066 107.181 75.35"/></g><g class="aa"><polygon class="ab" points="106.971 75.494 48.463 102.777 -10.045 130.059 26.817 209.11 143.833 154.544 106.971 75.494"/></g><g class="ac"><polygon class="ad" points="-9.816 118.748 -5.778 157.167 -1.74 195.586 144.579 180.207 136.503 103.37 30.569 114.504 -9.816 118.748"/></g><g class="ae"><polygon class="af" points="14.052 77.407 -15.722 90.663 -45.496 103.919 14.345 238.325 73.893 211.812 30.569 114.504 14.052 77.407"/></g><g class="ag"><polygon class="ah" points="10.265 79.337 -17.96 95.632 -46.186 111.928 27.377 239.342 83.828 206.751 30.569 114.504 10.265 79.337"/></g><g class="ai"><polygon class="aj" points="6.7 81.651 -19.667 100.809 -46.034 119.966 40.444 238.992 93.178 200.678 30.569 114.504 6.7 81.651"/></g><g class="ak"><polygon class="al" points="3.397 84.326 -20.823 106.135 -45.044 127.943 53.402 237.278 101.843 193.662 30.569 114.504 3.397 84.326"/></g><g class="am"><polygon class="an" points="0.392 87.332 -21.417 111.552 -43.225 135.773 66.11 234.219 109.727 185.778 30.569 114.504 0.392 87.332"/></g><g class="ao"><polygon class="ap" points="-2.283 90.635 -21.44 117.003 -40.597 143.37 78.429 229.848 116.743 177.113 30.569 114.504 -2.283 90.635"/></g><g class="aq"><polygon class="ar" points="-4.598 94.2 -20.894 122.425 -37.19 150.651 90.224 224.213 122.816 167.762 30.569 114.504 -4.598 94.2"/></g><g class="as"><polygon class="at" points="-6.528 97.987 -19.784 127.761 -33.041 157.535 101.365 217.377 127.877 157.828 30.569 114.504 -6.528 97.987"/></g><g class="au"><polygon class="av" points="-8.051 101.955 -18.123 132.952 -28.194 163.949 111.73 209.413 131.873 147.419 30.569 114.504 -8.051 101.955"/></g><g class="aw"><polygon class="ax" points="-9.151 106.061 -15.928 137.941 -22.704 169.82 121.206 200.409 134.759 136.65 30.569 114.504 -9.151 106.061"/></g><g class="ay"><polygon class="az" points="-9.816 110.259 -13.223 142.672 -16.63 175.086 129.689 190.464 136.503 125.638 30.569 114.504 -9.816 110.259"/></g><g class="ba"><polygon class="bb" points="-10.039 114.504 -10.039 150.837 -10.039 187.17 137.086 187.17 137.086 114.504 30.569 114.504 -10.039 114.504"/></g><polygon class="bc" points="112.422 61.666 19.312 91.919 -73.798 122.173 -40.427 224.877 145.792 164.37 112.422 61.666"/><polygon class="bd" points="109.415 57.064 30.211 114.609 -48.993 172.154 59.85 321.964 218.258 206.874 109.415 57.064"/><polygon class="be" points="114.996 65.658 30.211 114.609 -54.574 163.56 38.013 323.926 207.584 226.025 114.996 65.658"/><polygon class="bf" points="119.648 74.789 30.211 114.609 -59.227 154.429 16.091 323.595 194.966 243.955 119.648 74.789"/><g class="bg"><polygon class="bh" points="125.973 94.254 30.211 114.609 -65.551 134.964 -27.051 316.093 164.473 275.383 125.973 94.254"/></g><polygon class="bi" points="123.321 84.356 30.211 114.609 -62.899 144.862 -5.677 320.975 180.543 260.468 123.321 84.356"/></g><path d="M61.5786-.0179A61.58,61.58,0,0,0,30.6637,114.8168l61.83-44.9221,29.2917-21.2815A61.5966,61.5966,0,0,0,61.5786-.0179Z"/></svg>